<svg width="800" height="400" viewBox="0 0 800 400" xmlns="http://www.w3.org/2000/svg">
  <defs>
    <linearGradient id="grad1" x1="0%" y1="0%" x2="100%" y2="100%">
      <stop offset="0%" style="stop-color:#0f172a;stop-opacity:1" />
      <stop offset="100%" style="stop-color:#1e293b;stop-opacity:1" />
    </linearGradient>
  </defs>
  <rect width="800" height="400" fill="url(#grad1)"/>
  
  <!-- Canal Houses Stylized -->
  <path d="M150 300 L150 150 L200 100 L250 150 L250 300 Z" fill="#334155" stroke="#f59e0b" stroke-width="2"/>
  <path d="M260 300 L260 170 L310 120 L360 170 L360 300 Z" fill="#475569" stroke="#f59e0b" stroke-width="2"/>
  <path d="M370 300 L370 140 L420 90 L470 140 L470 300 Z" fill="#334155" stroke="#f59e0b" stroke-width="2"/>
  
  <!-- Permit Icon -->
  <rect x="550" y="100" width="120" height="160" rx="5" fill="white" />
  <rect x="560" y="110" width="100" height="10" rx="2" fill="#cbd5e1" />
  <rect x="560" y="130" width="100" height="10" rx="2" fill="#cbd5e1" />
  <rect x="560" y="150" width="60" height="10" rx="2" fill="#cbd5e1" />
  <circle cx="640" cy="220" r="25" fill="#f59e0b" opacity="0.8" />
  <path d="M630 220 L638 228 L655 210" stroke="white" stroke-width="3" fill="none" />

  <text x="400" y="360" font-family="sans-serif" font-size="20" fill="#94a3b8" text-anchor="middle">Horecavergunning Amsterdam</text>
</svg>